<svg width="53" height="53" viewBox="0 0 53 53" fill="none" xmlns="http://www.w3.org/2000/svg">
<path d="M14.9744 23.251L21.2226 20.7022C21.6705 20.5194 21.974 20.0958 22.0025 19.6127C22.0327 19.1296 21.782 18.6726 21.3592 18.4377L15.2075 15.0125C14.5985 14.6737 13.8346 14.8926 13.4965 15.4998C13.1577 16.107 13.3766 16.8735 13.9838 17.2116L17.8452 19.3612L14.0249 20.9203C13.3808 21.1828 13.0722 21.9175 13.3346 22.5608C13.5343 23.0481 14.0039 23.3441 14.5005 23.3441C14.6591 23.344 14.8193 23.3139 14.9744 23.251Z" fill="#D9D9D9"/>
<path d="M31.3178 20.6561L37.4696 23.8221C37.6533 23.917 37.8503 23.9622 38.0442 23.9622C38.5005 23.9622 38.9407 23.713 39.1638 23.2786C39.4817 22.6605 39.2385 21.9024 38.6212 21.5837L34.5586 19.4937L38.6573 17.2116C39.2637 16.8736 39.4825 16.107 39.1446 15.4998C38.8066 14.8926 38.04 14.6737 37.4337 15.0125L31.2819 18.4377C30.8759 18.6633 30.6285 19.0935 30.6352 19.5574C30.6427 20.0212 30.906 20.4432 31.3178 20.6561Z" fill="#D9D9D9"/>
<path d="M26.5002 0C11.8921 0 0.00695801 11.8875 0.00695801 26.5C0.00695801 41.1116 11.892 53 26.5002 53C41.1094 53 52.9943 41.1116 52.9943 26.5C52.9943 11.8875 41.1094 0 26.5002 0ZM26.5002 50.4831C13.2791 50.4831 2.52306 39.7244 2.52306 26.5C2.52306 13.2756 13.2792 2.51685 26.5002 2.51685C39.7212 2.51685 50.4783 13.2755 50.4783 26.4999C50.4783 39.7243 39.7213 50.4831 26.5002 50.4831Z" fill="#D9D9D9"/>
<path d="M39.3894 39.2791C39.0066 33.8669 34.4962 29.5747 29.0056 29.5747H24.4297C19.0207 29.5747 14.5627 33.7566 14.0665 39.073C14.0206 39.2373 14.0089 39.4124 14.0314 39.5815C14.0242 39.7414 14.02 39.9035 14.02 40.0652C14.02 40.3999 14.1525 40.7289 14.389 40.9646C14.6255 41.2003 14.9442 41.344 15.2781 41.344C15.2789 41.344 15.2789 41.344 15.2797 41.344L38.16 41.2999C38.8545 41.2991 39.4163 40.7289 39.4163 40.0346C39.4163 39.9107 39.4133 39.783 39.4091 39.6602C39.4213 39.5347 39.415 39.4034 39.3894 39.2791ZM24.4298 32.0967H29.0057C31.9209 32.0967 34.4707 33.6957 35.8381 36.062C32.0908 33.6624 25.4314 31.1843 17.5505 36.1588C18.9056 33.737 21.4814 32.0967 24.4298 32.0967ZM35.4145 38.7771L18.1264 38.8022C26.0287 33.3381 32.4299 36.5354 35.4145 38.7771Z" fill="#D9D9D9"/>
</svg>
