<svg height="512" viewBox="0 0 60 61" width="512" xmlns="http://www.w3.org/2000/svg"><g id="Page-1" fill="none" fill-rule="evenodd"><g id="033---Mailbox-sync" fill-rule="nonzero"><path id="Shape" d="m43.23 27.01c1.1664221.0499494 2.2521619.6092699 2.97 1.53l11.96 15.38c.5430197.7014173.8384031 1.5629521.84 2.45v9.63c0 2.209139-1.790861 4-4 4h-50c-2.209139 0-4-1.790861-4-4v-9.63c.00159694-.8870479.29698031-1.7485827.84-2.45l11.96-15.38c.7178381-.9207301 1.8035779-1.4800506 2.97-1.53z" fill="#FFFFFF"/><path id="Shape" d="m58.16 43.92-11.96-15.38c-.7178381-.9207301-1.8035779-1.4800506-2.97-1.53h-3c1.1664221.0499494 2.2521619.6092699 2.97 1.53l11.96 15.38c.5430197.7014173.8384031 1.5629521.84 2.45v9.63c0 2.209139-1.790861 4-4 4h3c2.209139 0 4-1.790861 4-4v-9.63c-.0015969-.8870479-.2969803-1.7485827-.84-2.45z" fill="#FFFFFF"/><path id="Shape" d="m55 47h-12.76c-.758944.0004027-1.45227.4303423-1.79 1.11l-1.9 3.78c-.33773.6796577-1.031056 1.1095973-1.79 1.11h-13.52c-.758944-.0004027-1.45227-.4303423-1.79-1.11l-1.9-3.78c-.33773-.6796577-1.031056-1.1095973-1.79-1.11h-12.76l12-16h26z" fill="#FFFFFF"/><path id="Shape" d="m55 47h-12.76c-.758944.0004027-1.45227.4303423-1.79 1.11l-1.9 3.78c-.33773.6796577-1.031056 1.1095973-1.79 1.11h-13.52c-.758944-.0004027-1.45227-.4303423-1.79-1.11l-1.9-3.78c-.33773-.6796577-1.031056-1.1095973-1.79-1.11h-12.76l12-16h26z" fill="#FFFFFF"/><circle id="Oval" cx="30" cy="18" fill="#FFFFFF" r="16"/><path id="Shape" d="m30 2c-.506 0-1.006.03-1.5.076 8.2180365.77140554 14.4992559 7.669838 14.4992559 15.924s-6.2812194 15.1525945-14.4992559 15.924c.494.046.994.076 1.5.076 8.836556 0 16-7.163444 16-16s-7.163444-16-16-16z" fill="#FFFFFF"/><path id="Shape" d="m5 60h3c-2.209139 0-4-1.790861-4-4v-9.63c.00159694-.8870479.29698031-1.7485827.84-2.45l11.96-15.38c.7202931-.9235935 1.8106753-1.4832328 2.981-1.53-3.1713546-4.6805534-3.6412621-10.6860047-1.2365244-15.8028696 2.4047378-5.11686495 7.3281329-8.58766306 12.9555244-9.1331304-.492-.044-.99-.074-1.5-.074-5.9238303.01365502-11.3564803 3.29558983-14.1246434 8.5328816-2.7681632 5.2372918-2.4198327 11.5747556.9056434 16.4771184-1.1703247.0467672-2.2607069.6064065-2.981 1.53l-11.96 15.38c-.54301969.7014173-.83840306 1.5629521-.84 2.45v9.63c0 1.060866.42142736 2.0782816 1.17157288 2.8284271.75014551.7501455 1.76756116 1.1715729 2.82842712 1.1715729z" fill="#fff"/><path id="Rectangle-path" d="m.295 39.763h8v2h-8z" fill="#fff" transform="matrix(.614 -.789 .789 .614 -30.52 19.129)"/><g fill="#D9D9D9"><path id="Shape" d="m4.315 41.762c-.55228473.0027614-1.00223852-.4427153-1.00499994-.995-.00276143-.5522847.44271521-1.0022385.99499994-1.005h.01c.55228475 0 1 .4477153 1 1s-.44771525 1-1 1z"/><path id="Shape" d="m46.988 27.923c-.5660969-.7241115-1.3211916-1.2778014-2.182-1.6 4.0331057-7.1483287 2.3830659-16.157465-3.9217186-21.41239007-6.3047845-5.25492511-15.4637783-5.25492511-21.7685628 0-6.3047845 5.25492507-7.9548243 14.26406137-3.9217186 21.41239007-.8608084.3221986-1.6159031.8758885-2.182 1.6l-7.05 9.068c-.32441415.4363345-.2407504 1.0519211.18834896 1.3858464.42909936.3339252 1.04637603.2638106 1.38965104-.1578464l7.048-9.064c.4389948-.554942 1.061075-.9356338 1.755-1.074 5.420705 7.3904674 15.73731 9.1272592 23.279 3.919h2.878l11.7 15.6c.3313708.4418278.9581722.5313708 1.4.2s.5313708-.9581722.2-1.4l-12-16c-.1888544-.2518058-.4852427-.4-.8-.4h-.971c.5891914-.5986955 1.1333395-1.2401084 1.628-1.919.6936455.1377479 1.3155043.5181666 1.754 1.073l11.957 15.377c.4073231.5267362.6294728 1.1731496.632 1.839v9.63c0 1.6568542-1.3431458 3-3 3h-50c-1.65685425 0-3-1.3431458-3-3v-9.63c.00252719-.6658504.2246769-1.3122638.632-1.839.33744598-.4374095.25640952-1.065554-.181-1.403s-1.06555402-.2564095-1.403.181c-.67624203.8774311-1.04456177 1.9532199-1.048 3.061v9.63c.00330612 2.7600532 2.23994685 4.9966939 5 5h50c2.7600532-.0033061 4.9966939-2.2399468 5-5v-9.63c-.0036505-1.1089906-.3726846-2.1858671-1.05-3.064zm-31.988-9.923c0-8.28427125 6.7157288-15 15-15s15 6.71572875 15 15c0 8.2842712-6.7157288 15-15 15-8.2803876-.0093685-14.9906315-6.7196124-15-15z"/><path id="Shape" d="m16.76 31.32c-.4418278-.3313708-1.0686292-.2418278-1.4.2l-11.16 14.88c-.22726324.3030176-.26381921.7084296-.09442719 1.0472136.16939201.338784.51565513.5527864.89442719.5527864h12.764c.379067-.0012129.7258235.2132797.894.553l1.895 3.789c.5051529 1.0189304 1.5457301 1.6619706 2.683 1.658h13.528c1.1372699.0039706 2.1778471-.6390696 2.683-1.658l1.895-3.789c.1681765-.3397203.514933-.5542129.894-.553h4.764c.5522847 0 1-.4477153 1-1s-.4477153-1-1-1h-4.764c-1.1372699-.0039706-2.1778471.6390696-2.683 1.658l-1.895 3.789c-.1681765.3397203-.514933.5542129-.894.553h-13.528c-.379067.0012129-.7258235-.2132797-.894-.553l-1.895-3.789c-.5051529-1.0189304-1.5457301-1.6619706-2.683-1.658h-10.764l9.96-13.28c.3313708-.4418278.2418278-1.0686292-.2-1.4z"/><path id="Shape" d="m39.947 13.105c-.2373497-.1186659-.5121326-.1381283-.7638386-.0541012-.251706.084027-.4596935.2646527-.5781614.5021012l-.665 1.331c-1.113149-3.0134668-3.7481392-5.20512474-6.9139614-5.75070019-3.1658222-.54557546-6.3824179.63766147-8.4400386 3.10470019-.3537384.4241547-.2966547 1.0547616.1275 1.4085s1.0547616.2966547 1.4085-.1275c1.6838655-2.0205735 4.3582852-2.9266849 6.9235598-2.3457486 2.5652745.5809363 4.5883831 2.5508576 5.2374402 5.0997486l-2.336-1.168c-.4942949-.2468713-1.0951287-.0462949-1.342.448s-.0462949 1.0951287.448 1.342l4 2c.2373497.1186659.5121326.1381283.7638386.0541012.251706-.084027.4596935-.2646527.5781614-.5021012l2-4c.1186659-.2373497.1381283-.5121326.0541012-.7638386-.084027-.251706-.2646527-.4596935-.5021012-.5781614z"/><path id="Shape" d="m35.878 22.481c-1.6838655 2.0205735-4.3582852 2.9266849-6.9235598 2.3457486-2.5652745-.5809363-4.5883831-2.5508576-5.2374402-5.0997486l2.336 1.173c.4942948.2468713 1.0951287.0462948 1.342-.448.2468713-.4942949.0462948-1.0951287-.448-1.342l-4-2c-.2373497-.1186659-.5121326-.1381283-.7638386-.0541012-.251706.084027-.4596935.2646527-.5781614.5021012l-2 4c-.2468713.4942948-.0462948 1.0951287.448 1.342.4942949.2468713 1.0951287.0462948 1.342-.448l.665-1.331c1.113149 3.0134668 3.7481392 5.2051247 6.9139614 5.7507002s6.3824179-.6376615 8.4400386-3.1047002c.2288286-.27438.293895-.6499961.1706893-.9853575-.1232058-.3353614-.4159657-.5795186-.768-.6405-.3520344-.0609814-.7098607.0704775-.9386893.3448575z"/></g></g></g></svg>
